<?xml version="1.0" encoding="iso-8859-1"?>
<!-- Generator: Adobe Illustrator 17.0.0, SVG Export Plug-In . SVG Version: 6.00 Build 0)  -->
<!DOCTYPE svg PUBLIC "-//W3C//DTD SVG 1.1//EN" "http://www.w3.org/Graphics/SVG/1.1/DTD/svg11.dtd">
<svg version="1.1" id="Capa_1" xmlns="http://www.w3.org/2000/svg" x="0px"
     y="0px"
     width="64px" height="64px" viewBox="0 0 64 64" style="enable-background:new 0 0 64 64;" xml:space="preserve">
<g>
	<circle cx="49.022" cy="39.603" r="1.663"/>
    <circle cx="14.89" cy="39.603" r="1.663"/>
    <rect x="30.246" y="38.566" width="3.149" height="1.905"/>
    <circle cx="27.601" cy="39.617" r="1.051"/>
    <circle cx="36.333" cy="39.617" r="1.051"/>
    <path d="M55.818,20.844v-4.88c0-0.705-0.573-1.279-1.279-1.279H9.726c-0.707,0-1.279,0.574-1.279,1.279v4.854
		c-2.175,0.196-3.886,2.003-3.886,4.228v3.412h54.878v-3.412C59.439,22.909,57.866,21.157,55.818,20.844z M8.299,26.271
		c-0.984,0-1.783-0.798-1.783-1.782c0-0.983,0.799-1.783,1.783-1.783c0.984,0,1.783,0.8,1.783,1.783
		C10.083,25.473,9.284,26.271,8.299,26.271z M14.979,27.74c-0.392,0-0.709-0.317-0.709-0.709c0-0.39,0.317-0.708,0.709-0.708
		c0.391,0,0.708,0.318,0.708,0.708C15.687,27.423,15.37,27.74,14.979,27.74z M18.233,27.74c-0.391,0-0.708-0.317-0.708-0.709
		c0-0.39,0.317-0.708,0.708-0.708c0.393,0,0.708,0.318,0.708,0.708C18.941,27.423,18.625,27.74,18.233,27.74z M21.49,27.74
		c-0.392,0-0.708-0.317-0.708-0.709c0-0.39,0.316-0.708,0.708-0.708c0.391,0,0.708,0.318,0.708,0.708
		C22.198,27.423,21.88,27.74,21.49,27.74z M24.745,27.74c-0.392,0-0.709-0.317-0.709-0.709c0-0.39,0.317-0.708,0.709-0.708
		c0.391,0,0.708,0.318,0.708,0.708C25.453,27.423,25.135,27.74,24.745,27.74z M49.659,25.57H14.08c-0.941,0-1.705-0.764-1.705-1.707
		c0-0.942,0.764-1.706,1.705-1.706h35.579c0.941,0,1.705,0.764,1.705,1.706C51.364,24.807,50.6,25.57,49.659,25.57z M53.258,20.779
		H11.005v-3.535h42.253V20.779z M55.817,26.271c-0.984,0-1.783-0.798-1.783-1.782c0-0.983,0.799-1.783,1.783-1.783
		c0.984,0,1.782,0.8,1.782,1.783C57.599,25.473,56.801,26.271,55.817,26.271z"/>
    <path d="M4.561,46.183c0,2.356,1.911,4.266,4.268,4.266h46.344c2.357,0,4.267-1.91,4.267-4.266V30.164H4.561V46.183z
		 M49.023,32.825c3.697,0,6.694,2.997,6.694,6.693c0,3.697-2.997,6.695-6.694,6.695c-3.696,0-6.694-2.998-6.694-6.695
		C42.329,35.822,45.327,32.825,49.023,32.825z M24.894,35.088h13.851v9.059H24.894V35.088z M14.89,32.923
		c3.696,0,6.693,2.997,6.693,6.693c0,3.697-2.997,6.695-6.693,6.695c-3.697,0-6.695-2.998-6.695-6.695
		C8.195,35.92,11.193,32.923,14.89,32.923z"/>
</g>
</svg>
