<?xml version="1.0" encoding="iso-8859-1"?>
<!-- Generator: Adobe Illustrator 16.0.4, SVG Export Plug-In . SVG Version: 6.00 Build 0)  -->
<!DOCTYPE svg PUBLIC "-//W3C//DTD SVG 1.1//EN" "http://www.w3.org/Graphics/SVG/1.1/DTD/svg11.dtd">
<svg version="1.1" id="Capa_1" xmlns="http://www.w3.org/2000/svg" x="0px"
     y="0px"
     width="34.047px" height="39.113px" viewBox="0 0 34.047 39.113" style="enable-background:new 0 0 34.047 39.113;"
     xml:space="preserve">
<g id="_x34_87._Back">
	<g>
		<path d="M32.047,16.557h-21.39L22.385,4.828c0.781-0.78,0.781-2.047,0-2.828l-1.414-1.414c-0.781-0.781-2.047-0.781-2.828,0
			L2,16.729l-1.414,1.414c-0.781,0.781-0.781,2.047,0,2.828L2,22.385l16.143,16.143c0.781,0.781,2.047,0.781,2.828,0l1.414-1.414
			c0.781-0.781,0.781-2.048,0-2.829L10.657,22.557h21.39c1.104,0,2-0.896,2-2v-2C34.047,17.452,33.151,16.557,32.047,16.557z"/>
	</g>
</g>
    <g>
</g>
    <g>
</g>
    <g>
</g>
    <g>
</g>
    <g>
</g>
    <g>
</g>
    <g>
</g>
    <g>
</g>
    <g>
</g>
    <g>
</g>
    <g>
</g>
    <g>
</g>
    <g>
</g>
    <g>
</g>
    <g>
</g>
</svg>
