<?xml version="1.0" encoding="iso-8859-1"?>
<!-- Generator: Adobe Illustrator 16.0.4, SVG Export Plug-In . SVG Version: 6.00 Build 0)  -->
<!DOCTYPE svg PUBLIC "-//W3C//DTD SVG 1.1//EN" "http://www.w3.org/Graphics/SVG/1.1/DTD/svg11.dtd">
<svg version="1.1" id="Capa_1" xmlns="http://www.w3.org/2000/svg" x="0px"
     y="0px"
     width="33.859px" height="39.113px" viewBox="0 0 33.859 39.113" style="enable-background:new 0 0 33.859 39.113;"
     xml:space="preserve">
<g id="_x34_88._Forward">
	<g>
		<path d="M33.273,18.143L15.717,0.586c-0.781-0.781-2.047-0.781-2.828,0L11.475,2c-0.781,0.781-0.781,2.048,0,2.828l11.728,11.729
			H2c-1.104,0-2,0.896-2,2v2c0,1.104,0.896,2,2,2h21.202L11.475,34.284c-0.781,0.781-0.781,2.048,0,2.829l1.414,1.414
			c0.781,0.781,2.047,0.781,2.828,0l17.557-17.557C34.055,20.189,34.055,18.924,33.273,18.143z"/>
	</g>
</g>
    <g>
</g>
    <g>
</g>
    <g>
</g>
    <g>
</g>
    <g>
</g>
    <g>
</g>
    <g>
</g>
    <g>
</g>
    <g>
</g>
    <g>
</g>
    <g>
</g>
    <g>
</g>
    <g>
</g>
    <g>
</g>
    <g>
</g>
</svg>
