<svg xmlns="http://www.w3.org/2000/svg" width="48" height="48" enable-background="new 0 0 16 16">
    <path d="M46.599 46.599c-1.758 1.758-4.605 1.758-6.363 0l-7.941-7.941c-3.267 2.091-7.128 3.342-11.295 3.342-11.598 0-21-9.402-21-21s9.402-21 21-21 21 9.402 21 21c0 4.167-1.251 8.028-3.342 11.295l7.941 7.941c1.758 1.758 1.758 4.605 0 6.363zm-25.599-40.599c-8.283 0-15 6.717-15 15 0 8.286 6.717 15 15 15 8.286 0 15-6.714 15-15 0-8.283-6.714-15-15-15zm6 18h-12c-1.656 0-3-1.344-3-3s1.344-3 3-3h12c1.659 0 3 1.344 3 3s-1.341 3-3 3z"/>
</svg>